<svg xmlns="http://www.w3.org/2000/svg" viewBox="0 0 805.41 302.15"><defs><style>.cls-1{fill:#ff0035;}.cls-2{fill:#fff;}</style></defs><title>Asset 2</title><g id="Layer_2" data-name="Layer 2"><g id="Layer_1-2" data-name="Layer 1"><path class="cls-1" d="M158.77,0c-.09.15-.12.14-.21.3A66.69,66.69,0,0,0,154,11.39c-3.19,9.62-6.4,22.84-9.21,36.1s-5.23,26.6-6.94,36.68c-.86,5-1.54,9.26-2,12.25-.23,1.49-.41,2.68-.53,3.5,0,.32-.07.53-.1.72.07,1,1.28,3,5.43,5s10.84,3.59,18.13,3.59,13.85-1.51,18.13-3.59,5.36-4.09,5.43-5l-.1-.72c-.12-.82-.3-2-.53-3.5-.47-3-1.15-7.22-2-12.25-1.72-10.08-4.14-23.42-6.94-36.68s-6-26.48-9.21-36.1A66.69,66.69,0,0,0,159,.3c-.09-.16-.12-.15-.21-.3ZM44.2,12.93C17.21,33.17,0,60.37,0,90.43c0,21,8.08,40.62,22.14,57.44l18.4-53.05c-7.69-11.84-12-25-12-38.92,0-15.59,6.07-30.06,15.64-43Zm229.15,0c9.56,12.91,15.64,27.38,15.64,43,0,13.9-4.3,27.08-12,38.91l18.39,53c14.06-16.82,22.14-36.45,22.14-57.43,0-30.06-17.22-57.27-44.19-77.49ZM130.46,64.35C105.91,70.57,88.54,86,75.82,112,58.94,146.52,51.42,200.42,51.2,274.5a216,216,0,0,0,94.94,27.65c-.23-25.89-4.69-66.83-7.93-93.38-45.38-4-65-20-65-20s2.56-18.77,4.34-27.08a250,250,0,0,0,81.23,13,250.24,250.24,0,0,0,81.22-13c1.77,8.31,4.34,27.08,4.34,27.08s-19,16.28-65,20.11c-3.25,26.55-7.7,67.42-7.93,93.27a215.93,215.93,0,0,0,94.94-27.65c-.22-74.08-7.74-128-24.62-162.52C229,86,211.62,70.57,187.07,64.35c1.2,6.36,2.25,12.31,3.13,17.46.24.13.48.24.71.37,8.51,4.74,14.69,11.88,16,20.59l4.08,28-.55,1.35c-3.59,8.8-12.71,13.77-22.45,17.4a90.83,90.83,0,0,1-29.13,5.67h-.11a90.78,90.78,0,0,1-29.12-5.67c-9.74-3.63-18.87-8.59-22.45-17.4l-.55-1.35,4.07-28c1.27-8.71,7.45-15.85,16-20.59l.7-.37c.88-5.15,1.93-11.1,3.13-17.46ZM54.23,88.21l-28.11,81,20.14,9.3c4.12-28.56,10.58-52.23,19.89-71.28a124.91,124.91,0,0,1,7.34-13l-19.26-6Zm209.09,0-19.27,6a123.69,123.69,0,0,1,7.33,13c9.31,19,15.77,42.72,19.9,71.28l20.15-9.3-28.11-81Zm-141.11,13a12.92,12.92,0,0,0-.9,3.13L117.73,129c2,3.33,7.85,7.59,15.61,10.47a82.71,82.71,0,0,0,25.43,5,82.61,82.61,0,0,0,25.42-5c7.77-2.89,13.62-7.15,15.62-10.48l-3.59-24.64a12.08,12.08,0,0,0-.9-3.13q-1.11.39-2.28.75c-.67,6.15-5.65,10.6-11.43,13.42-6.21,3-14.14,4.68-22.84,4.68s-16.63-1.65-22.84-4.68c-5.78-2.82-10.77-7.27-11.43-13.42-.78-.24-1.55-.49-2.29-.75Z"/><path class="cls-2" d="M384.66,49.74A38.41,38.41,0,0,1,398.06,52a23.86,23.86,0,0,1,10.42,7.69q4.35,5.45,6.77,14.46t2.43,22.49q0,13.55-2.43,22.59t-6.8,14.5A24.15,24.15,0,0,1,398,141.41a38.61,38.61,0,0,1-13.47,2.25H363.26q.42-5.81.65-11.93t.38-12.16q.13-6.06.2-11.86t.07-11.08q0-5.26-.07-11.07t-.2-11.83q-.14-6-.38-12.1t-.65-11.89Zm-9,7.79q-.48,10.13-.65,20.2t-.17,18.9q0,8.82.14,19t.62,20.2h9.16a23.79,23.79,0,0,0,5.64-.65,14.14,14.14,0,0,0,5-2.29,17.44,17.44,0,0,0,4.2-4.47,27.45,27.45,0,0,0,3.25-7.18,60,60,0,0,0,2.05-10.39,121.86,121.86,0,0,0,.72-14.19,121.68,121.68,0,0,0-.72-14.18,59.62,59.62,0,0,0-2.05-10.39,26.63,26.63,0,0,0-3.25-7.15,17.79,17.79,0,0,0-4.2-4.44,14.32,14.32,0,0,0-5-2.29,24.32,24.32,0,0,0-5.64-.65Z"/><path class="cls-2" d="M440.3,94.72c.05,3.33.09,6.5.14,9.53s.11,5.88.21,8.55.2,5.09.34,7.28.32,4.08.54,5.67q.9,6,3.42,8.58a8.6,8.6,0,0,0,6.5,2.63,10.49,10.49,0,0,0,4.64-1.16,21.32,21.32,0,0,0,4.62-3.07,36.08,36.08,0,0,0,4.24-4.38,44.51,44.51,0,0,0,3.59-5.06q.4-13.53.41-27.41,0-6.36-.07-12.1t-.24-11.28c-.12-3.69-.25-7.39-.41-11.11s-.36-7.6-.58-11.65h12.64q-.35,6.07-.58,11.65c-.16,3.72-.29,7.42-.41,11.11s-.19,7.45-.24,11.28-.07,7.86-.07,12.1,0,8.35.07,12.34.13,7.93.24,11.83.25,7.79.41,11.68.35,7.88.58,11.93H467.58c.09-1.77.18-3.54.27-5.29s.18-3.5.28-5.23a60.49,60.49,0,0,1-4.21,4.68,29.4,29.4,0,0,1-4.82,3.9,24.81,24.81,0,0,1-5.57,2.66,20.3,20.3,0,0,1-6.46,1,14.45,14.45,0,0,1-12.61-6.46Q430,132.46,430,119.67q0-3.15,0-6.73c0-2.4.05-4.74.1-7s.08-4.43.1-6.39,0-3.55,0-4.78q0-6.36-.06-11.9T430,72c-.09-3.55-.22-7.13-.37-10.73s-.36-7.43-.59-11.48H441.6q-.35,6.07-.61,11.48c-.19,3.6-.33,7.18-.45,10.73s-.19,7.18-.24,10.87S440.26,90.48,440.3,94.72Z"/><path class="cls-2" d="M534,98.68q-.15-10.67-.45-18.62a91.38,91.38,0,0,0-1.3-13.2,19.66,19.66,0,0,0-2.9-7.83A6.19,6.19,0,0,0,524,56.44a10.4,10.4,0,0,0-4.27,1.16,28.55,28.55,0,0,0-5.09,3.11,42.6,42.6,0,0,0-5,4.41,29.42,29.42,0,0,0-4,5q-.41,13.53-.41,27.41,0,6.36.07,12.1c.05,3.83.11,7.59.21,11.28s.22,7.39.41,11.11.38,7.6.61,11.65H494q.33-6.07.58-11.65c.16-3.72.29-7.42.41-11.11s.19-7.45.24-11.28.06-7.86.06-12.1,0-8.35-.06-12.34-.13-7.93-.24-11.82-.25-7.8-.41-11.69-.36-7.88-.58-11.93h12.71l-.62,10.59a42.12,42.12,0,0,1,4.59-4.68,40.41,40.41,0,0,1,5.26-3.93,27.41,27.41,0,0,1,5.6-2.7,17.38,17.38,0,0,1,5.68-1,14.46,14.46,0,0,1,12.61,6.46q4.47,6.46,4.48,19.24c0,2.1,0,4.34,0,6.74s0,4.74-.1,7-.08,4.43-.1,6.39,0,3.55,0,4.78c0,4.24,0,8.21.07,11.9s.12,7.31.21,10.87.21,7.13.37,10.73.36,7.43.58,11.48H532.66q.33-6.07.61-11.48t.48-10.73q.21-5.34.24-10.87T534,98.68Z"/><path class="cls-2" d="M585.7,97.45h24.89c-.19,3.74-.31,7.41-.38,11s-.1,7-.1,10.32,0,6.28,0,9,.08,5,.17,7c.09,2.32.18,4.4.28,6.22a40.56,40.56,0,0,1-8.48,3,51.29,51.29,0,0,1-12.1,1.23,29.89,29.89,0,0,1-13.19-2.94,29.19,29.19,0,0,1-10.6-8.92,45.19,45.19,0,0,1-7.07-15.11,80,80,0,0,1-2.57-21.5,76.16,76.16,0,0,1,2.7-21.5,45.41,45.41,0,0,1,7.35-15.11,29.63,29.63,0,0,1,24-11.86,50.89,50.89,0,0,1,5.19.24c1.55.16,3,.38,4.34.65a29.21,29.21,0,0,1,3.8,1q1.77.62,3.48,1.29V65.32a30.42,30.42,0,0,0-8.37-7,18.31,18.31,0,0,0-8.51-2,15.81,15.81,0,0,0-9.37,2.91,23.17,23.17,0,0,0-6.94,8.23A46.4,46.4,0,0,0,570,80.19a84.87,84.87,0,0,0-1.47,16.44,89.5,89.5,0,0,0,1.36,16.17A47.91,47.91,0,0,0,574,125.65a23.49,23.49,0,0,0,6.87,8.51,15.75,15.75,0,0,0,9.67,3.08,20.9,20.9,0,0,0,4.2-.38,13.05,13.05,0,0,0,3.59-1.33c.05-1,.09-2.17.14-3.49,0-1.14.09-2.52.14-4.13s.06-3.5.06-5.64c0-2.33,0-4.9-.1-7.73s-.19-5.88-.37-9.16H585.7Z"/><path class="cls-2" d="M654,137.51a18.39,18.39,0,0,0,5.44-.75,24.09,24.09,0,0,0,4.48-1.88,25.2,25.2,0,0,0,3.76-2.53l3.28-2.7v13.47c-1.19.23-2.38.48-3.59.75s-2.55.52-4,.75-3.14.43-5,.62-3.92.27-6.29.27a25.23,25.23,0,0,1-12.89-3.32,28.57,28.57,0,0,1-9.7-9.57,48.86,48.86,0,0,1-6.12-15.24A89.06,89.06,0,0,1,621.25,97a103.63,103.63,0,0,1,1.78-20,55.08,55.08,0,0,1,5.23-15.49,28.12,28.12,0,0,1,8.54-10A20.1,20.1,0,0,1,648.59,48a21.46,21.46,0,0,1,11.86,3.18,23.72,23.72,0,0,1,8.14,9.23,49.43,49.43,0,0,1,4.65,14.86,123.76,123.76,0,0,1,1.47,20.17V98H633.42a136.42,136.42,0,0,0,1.74,18.39,42.58,42.58,0,0,0,3.8,12.23,15.9,15.9,0,0,0,6.18,6.81A17.87,17.87,0,0,0,654,137.51Zm9-47.44q-.13-4-.41-8.07c-.18-2.73-.47-5.37-.85-7.93a54.06,54.06,0,0,0-1.58-7.17,22.5,22.5,0,0,0-2.56-5.81,12.42,12.42,0,0,0-3.83-3.9,9.68,9.68,0,0,0-5.33-1.44,8.76,8.76,0,0,0-6.8,3,22.86,22.86,0,0,0-4.38,7.86,57,57,0,0,0-2.49,11q-.83,6.15-1.16,12.44Z"/><path class="cls-2" d="M742.66,96.77a92.79,92.79,0,0,1-2.26,21.84,47.72,47.72,0,0,1-6.25,15.18,26.35,26.35,0,0,1-9.4,8.85,25.1,25.1,0,0,1-23.31,0,26.27,26.27,0,0,1-9.4-8.85,48,48,0,0,1-6.29-15.18,91.11,91.11,0,0,1-2.29-21.84A90.72,90.72,0,0,1,685.75,75,48.34,48.34,0,0,1,692,59.79a26.05,26.05,0,0,1,9.4-8.89,25.1,25.1,0,0,1,23.31,0,26.13,26.13,0,0,1,9.4,8.89A48.1,48.1,0,0,1,740.4,75,92.4,92.4,0,0,1,742.66,96.77Zm-11.76,0a104.94,104.94,0,0,0-1.37-18.18A49,49,0,0,0,725.77,66a18.9,18.9,0,0,0-5.64-7.31,11.68,11.68,0,0,0-14.08,0A19.23,19.23,0,0,0,700.38,66a48.17,48.17,0,0,0-3.8,12.62,105,105,0,0,0-1.36,18.18A105.57,105.57,0,0,0,696.58,115a47.48,47.48,0,0,0,3.8,12.58,19.27,19.27,0,0,0,5.67,7.28,11.68,11.68,0,0,0,14.08,0,18.94,18.94,0,0,0,5.64-7.28A48.33,48.33,0,0,0,729.53,115,105.48,105.48,0,0,0,730.9,96.77Z"/><path class="cls-2" d="M794.13,98.68Q794,88,793.69,80.06a92.83,92.83,0,0,0-1.3-13.2A19.5,19.5,0,0,0,789.48,59a6.17,6.17,0,0,0-5.26-2.59A10.36,10.36,0,0,0,780,57.6a28.61,28.61,0,0,0-5.1,3.11,43.42,43.42,0,0,0-5,4.41,29.84,29.84,0,0,0-4,5q-.4,13.53-.41,27.41,0,6.36.07,12.1t.2,11.28q.13,5.53.41,11.11t.62,11.65H754.14q.35-6.07.58-11.65t.41-11.11q.18-5.54.24-11.28t.07-12.1q0-6.36-.07-12.34t-.24-11.82q-.17-5.85-.41-11.69t-.58-11.93h12.72l-.62,10.59a42,42,0,0,1,4.58-4.68,41.1,41.1,0,0,1,5.26-3.93,27.74,27.74,0,0,1,5.61-2.7,17.28,17.28,0,0,1,5.67-1A14.47,14.47,0,0,1,800,54.49q4.47,6.46,4.47,19.24c0,2.1,0,4.34,0,6.74s-.06,4.74-.1,7-.08,4.43-.11,6.39,0,3.55,0,4.78q0,6.36.07,11.9t.2,10.87q.13,5.33.38,10.73t.58,11.48H792.83q.34-6.07.62-11.48t.48-10.73q.2-5.34.24-10.87T794.13,98.68Z"/><path class="cls-2" d="M367.43,214.43a70.27,70.27,0,0,0,1.28,14.17,35.62,35.62,0,0,0,3.65,10.33,17.75,17.75,0,0,0,5.67,6.32,13.38,13.38,0,0,0,7.38,2.14,14.35,14.35,0,0,0,4.34-.61,16.72,16.72,0,0,0,3.42-1.53,21.15,21.15,0,0,0,2.87-2.07c.89-.75,1.76-1.49,2.62-2.19v11.19q-3.12.76-6.26,1.25a48.05,48.05,0,0,1-7,.47,25.52,25.52,0,0,1-11-2.39,23.7,23.7,0,0,1-8.77-7.27,36.22,36.22,0,0,1-5.79-12.3,65.19,65.19,0,0,1-2.09-17.51,62.2,62.2,0,0,1,2.2-17.5,37.12,37.12,0,0,1,6-12.3,24.24,24.24,0,0,1,8.79-7.27A24.74,24.74,0,0,1,385.41,175a48.05,48.05,0,0,1,7,.47q3.14.48,6.26,1.25v11.19c-.86-.7-1.73-1.43-2.62-2.2a22,22,0,0,0-2.87-2.06,16.72,16.72,0,0,0-3.42-1.53,14.35,14.35,0,0,0-4.34-.61,13.38,13.38,0,0,0-7.38,2.14,17.75,17.75,0,0,0-5.67,6.32,35.62,35.62,0,0,0-3.65,10.33A70.24,70.24,0,0,0,367.43,214.43Z"/><path class="cls-2" d="M453.38,214.43a75.64,75.64,0,0,1-1.84,17.79,39,39,0,0,1-5.09,12.36,21.52,21.52,0,0,1-7.66,7.21,20.49,20.49,0,0,1-19,0,21.41,21.41,0,0,1-7.65-7.21A39.22,39.22,0,0,1,407,232.22a74,74,0,0,1-1.87-17.79A73.64,73.64,0,0,1,407,196.71a39.61,39.61,0,0,1,5.12-12.39,21.34,21.34,0,0,1,7.65-7.24,20.49,20.49,0,0,1,19,0,21.44,21.44,0,0,1,7.66,7.24,39.37,39.37,0,0,1,5.09,12.39A75.32,75.32,0,0,1,453.38,214.43Zm-9.58,0a85.58,85.58,0,0,0-1.11-14.8,40.3,40.3,0,0,0-3.06-10.27,15.45,15.45,0,0,0-4.6-6,9.51,9.51,0,0,0-11.46,0,15.57,15.57,0,0,0-4.62,6,39.06,39.06,0,0,0-3.09,10.27,98.81,98.81,0,0,0,0,29.67A38.69,38.69,0,0,0,419,239.54a15.61,15.61,0,0,0,4.62,5.93,9.51,9.51,0,0,0,11.46,0,15.48,15.48,0,0,0,4.6-5.93,39.91,39.91,0,0,0,3.06-10.24A86.12,86.12,0,0,0,443.8,214.43Z"/><path class="cls-2" d="M491.62,216q-.12-8.69-.37-15.16a75.13,75.13,0,0,0-1.05-10.75,15.84,15.84,0,0,0-2.37-6.37,5,5,0,0,0-4.28-2.12,7.14,7.14,0,0,0-2.37.5,17.85,17.85,0,0,0-2.84,1.37,24.61,24.61,0,0,0-3,2.06c-1,.8-2,1.64-2.89,2.53q-.29,6.73-.39,13.39T472,215.05q0,5.17,0,9.85t.17,9.18c.07,3,.19,6,.33,9s.32,6.19.5,9.49H462.73c.18-3.3.34-6.47.47-9.49s.24-6,.33-9,.16-6.06.2-9.18,0-6.4,0-9.85,0-6.8,0-10.05-.1-6.46-.2-9.63-.2-6.35-.33-9.52-.29-6.41-.47-9.71h10.35l-.28,4.67a29.11,29.11,0,0,1,6.49-4.37,15.49,15.49,0,0,1,6.82-1.69,12.13,12.13,0,0,1,7.2,2.14,13.66,13.66,0,0,1,4.71,6.43,35.56,35.56,0,0,1,3.59-3.34,30.34,30.34,0,0,1,3.95-2.73,20.86,20.86,0,0,1,4.18-1.84,14.14,14.14,0,0,1,4.2-.66A11.78,11.78,0,0,1,524.21,180q3.64,5.25,3.64,15.67c0,1.7,0,3.53,0,5.48s-.05,3.86-.09,5.73-.06,3.61-.08,5.21,0,2.89,0,3.89q0,5.17.06,9.69c0,3,.09,6,.16,8.85s.18,5.81.31,8.74.29,6,.47,9.35H518.39c.19-3.3.35-6.42.5-9.35s.28-5.85.39-8.74.18-5.85.2-8.85,0-6.24,0-9.69q-.12-8.69-.36-15.16A75,75,0,0,0,518,190.08a15.84,15.84,0,0,0-2.37-6.37,5,5,0,0,0-4.28-2.12,6.93,6.93,0,0,0-2.56.59,20.45,20.45,0,0,0-3,1.56,31.63,31.63,0,0,0-3.23,2.31,29.22,29.22,0,0,0-3,2.84,42.11,42.11,0,0,1,.5,6.79c0,1.7,0,3.53,0,5.48s0,3.86-.08,5.73-.06,3.61-.08,5.21,0,2.89,0,3.89q0,5.17.06,9.69c0,3,.09,6,.16,8.85s.18,5.81.31,8.74.29,6,.47,9.35H490.56q.27-5,.5-9.35c.15-2.93.28-5.85.39-8.74s.18-5.85.19-8.85S491.65,219.44,491.62,216Z"/><path class="cls-2" d="M558.25,176.14a21,21,0,0,1,8.35,1.58,16.38,16.38,0,0,1,6.2,4.65,20.83,20.83,0,0,1,3.84,7.46,34.7,34.7,0,0,1,1.31,10,32.14,32.14,0,0,1-.44,5.09,27.47,27.47,0,0,1-4,10.35,17.69,17.69,0,0,1-9,7.18,19.49,19.49,0,0,1-6.76,1.09h-8.57q.11,7.13.3,14.55t.64,14.56H539.65c.23-3.15.4-6.39.53-9.71s.24-6.63.31-9.91.13-6.5.17-9.66.05-6.16.05-9,0-5.86-.05-9-.1-6.37-.17-9.63-.18-6.55-.31-9.86-.3-6.53-.53-9.68Zm-8.46,6.23q-.39,8.24-.53,16.48t-.14,15.47v3h8.57a8.66,8.66,0,0,0,7.79-4.59q2.79-4.59,2.79-12.94,0-8.52-2.62-13a8.62,8.62,0,0,0-8-4.46Z"/><path class="cls-2" d="M610.68,252.62l.28-6.73q-1.34,1.5-2.73,3a17.41,17.41,0,0,1-3.11,2.62,16,16,0,0,1-3.93,1.84,17.42,17.42,0,0,1-5.2.69,14.59,14.59,0,0,1-11.61-5.56,20.48,20.48,0,0,1-3.48-6.77,30.93,30.93,0,0,1-1.28-9.32,29.11,29.11,0,0,1,2.06-11.52,21.33,21.33,0,0,1,6.1-8.13,31.62,31.62,0,0,1,10-5.4A84.33,84.33,0,0,1,611.63,204a72.45,72.45,0,0,0-.7-11.13,23.5,23.5,0,0,0-2-7,7.89,7.89,0,0,0-3.31-3.59,9.88,9.88,0,0,0-4.54-1,15,15,0,0,0-4.45.69,26.32,26.32,0,0,0-4.43,1.87,43.33,43.33,0,0,0-4.39,2.7q-2.21,1.53-4.32,3.2v-10.8c1.56-.59,3-1.14,4.46-1.64s2.82-.94,4.25-1.31a43,43,0,0,1,4.32-.89,30.71,30.71,0,0,1,4.62-.33,24.83,24.83,0,0,1,8.54,1.33,14,14,0,0,1,6.07,4.23,19.05,19.05,0,0,1,3.62,7.46,43.65,43.65,0,0,1,1.19,11c0,.41,0,1.09,0,2.06s0,2.09-.06,3.39,0,2.69-.05,4.18,0,2.95-.06,4.39,0,2.82-.06,4.1,0,2.34,0,3.2c0,2,0,4.18,0,6.65s.1,5.09.2,7.88.2,5.69.33,8.73.29,6.15.47,9.3Zm.67-15.2q.17-5.67.28-12.16t.11-14.83a41,41,0,0,0-11.41,2.72,18.78,18.78,0,0,0-6.74,4.65,14.72,14.72,0,0,0-3.23,6.26,33.29,33.29,0,0,0-.83,7.63,28.8,28.8,0,0,0,.64,6.35,15.88,15.88,0,0,0,1.86,4.81,9.43,9.43,0,0,0,2.9,3,6.94,6.94,0,0,0,3.78,1.05,9.62,9.62,0,0,0,4.21-.86,13,13,0,0,0,3.28-2.23,21,21,0,0,0,2.7-3.06Z"/><path class="cls-2" d="M664.45,216q-.11-8.69-.36-15.16A75,75,0,0,0,663,190.08a15.7,15.7,0,0,0-2.36-6.37,5,5,0,0,0-4.29-2.12,8.62,8.62,0,0,0-3.48.95,23.4,23.4,0,0,0-4.14,2.53,35.71,35.71,0,0,0-4.07,3.59,24.39,24.39,0,0,0-3.23,4.07q-.33,11-.33,22.32,0,5.17.06,9.85c0,3.12.09,6.18.16,9.18s.19,6,.34,9,.31,6.19.5,9.49h-10.3c.19-3.3.34-6.47.47-9.49s.24-6,.34-9,.15-6.06.19-9.18.06-6.4.06-9.85,0-6.8-.06-10.05-.1-6.46-.19-9.63-.21-6.35-.34-9.52-.28-6.41-.47-9.71h10.35l-.5,8.63a35.28,35.28,0,0,1,3.73-3.82,33.18,33.18,0,0,1,4.29-3.2,22.73,22.73,0,0,1,4.56-2.2,14.31,14.31,0,0,1,4.62-.8A11.76,11.76,0,0,1,669.21,180q3.64,5.25,3.65,15.67c0,1.7,0,3.53,0,5.48s-.05,3.86-.08,5.73-.07,3.61-.09,5.21,0,2.89,0,3.89c0,3.45,0,6.68.05,9.69s.09,6,.17,8.85.17,5.81.31,8.74.28,6,.47,9.35H663.4q.27-5,.5-9.35c.14-2.93.28-5.85.39-8.74s.17-5.85.19-8.85S664.49,219.44,664.45,216Z"/><path class="cls-2" d="M695.51,176.14c-.22,3.15-.4,6.38-.52,9.68s-.24,6.59-.31,9.86-.13,6.47-.17,9.63,0,6.16,0,9,0,5.87,0,9,.09,6.37.17,9.66.17,6.59.28,9.91.26,6.56.44,9.71H685c.23-3.15.4-6.39.53-9.71s.23-6.63.31-9.91.13-6.5.17-9.66,0-6.16,0-9,0-5.86,0-9-.1-6.37-.17-9.63-.18-6.55-.31-9.86-.3-6.53-.53-9.68Z"/><path class="cls-2" d="M753.4,214.43a75.69,75.69,0,0,1-1.83,17.79,38.75,38.75,0,0,1-5.1,12.36,21.41,21.41,0,0,1-7.65,7.21,20.49,20.49,0,0,1-19,0,21.41,21.41,0,0,1-7.65-7.21,39.22,39.22,0,0,1-5.13-12.36,74.52,74.52,0,0,1-1.86-17.79,74.19,74.19,0,0,1,1.86-17.72,39.61,39.61,0,0,1,5.13-12.39,21.34,21.34,0,0,1,7.65-7.24,20.49,20.49,0,0,1,19,0,21.34,21.34,0,0,1,7.65,7.24,39.14,39.14,0,0,1,5.1,12.39A75.36,75.36,0,0,1,753.4,214.43Zm-9.57,0a85.58,85.58,0,0,0-1.11-14.8,40.7,40.7,0,0,0-3.06-10.27,15.45,15.45,0,0,0-4.6-6,9.51,9.51,0,0,0-11.46,0,15.57,15.57,0,0,0-4.62,6,39.06,39.06,0,0,0-3.09,10.27,98.81,98.81,0,0,0,0,29.67A38.69,38.69,0,0,0,719,239.54a15.61,15.61,0,0,0,4.62,5.93,9.51,9.51,0,0,0,11.46,0,15.48,15.48,0,0,0,4.6-5.93,40.32,40.32,0,0,0,3.06-10.24A86.12,86.12,0,0,0,743.83,214.43Z"/><path class="cls-2" d="M795.32,216q-.11-8.69-.36-15.16a75,75,0,0,0-1.06-10.75,15.84,15.84,0,0,0-2.37-6.37,5,5,0,0,0-4.28-2.12,8.54,8.54,0,0,0-3.48.95,23.11,23.11,0,0,0-4.15,2.53,35.63,35.63,0,0,0-4.06,3.59,23.89,23.89,0,0,0-3.23,4.07q-.33,11-.33,22.32c0,3.45,0,6.73,0,9.85s.09,6.18.17,9.18.18,6,.33,9,.32,6.19.5,9.49H762.76c.18-3.3.34-6.47.47-9.49s.24-6,.33-9,.16-6.06.2-9.18,0-6.4,0-9.85,0-6.8,0-10.05-.1-6.46-.2-9.63-.2-6.35-.33-9.52-.29-6.41-.47-9.71h10.35l-.5,8.63a34.43,34.43,0,0,1,8-7,23.07,23.07,0,0,1,4.57-2.2,14.31,14.31,0,0,1,4.62-.8A11.78,11.78,0,0,1,800.08,180q3.64,5.25,3.65,15.67c0,1.7,0,3.53,0,5.48s-.05,3.86-.09,5.73-.06,3.61-.08,5.21,0,2.89,0,3.89q0,5.17.06,9.69c0,3,.09,6,.17,8.85s.17,5.81.3,8.74.29,6,.47,9.35H794.26c.19-3.3.35-6.42.5-9.35s.28-5.85.39-8.74.18-5.85.2-8.85S795.36,219.44,795.32,216Z"/></g></g></svg>